<svg width="90" height="64" viewBox="0 0 90 64" fill="none" xmlns="http://www.w3.org/2000/svg">
<path d="M15.933 4.47508C15.4466 4.59839 14.8824 5.01376 14.4998 5.53296C14.1755 5.98077 13.8189 6.66223 13.7281 7.03216C13.7086 7.12302 13.6632 7.25282 13.6308 7.32421C13.6049 7.39561 13.4103 7.97971 13.2093 8.62223C13.0082 9.26474 12.8007 9.89428 12.7553 10.0176C12.7164 10.1409 12.5673 10.5822 12.4376 10.9911C12.3079 11.4 12.1587 11.8413 12.1133 11.9646C12.0614 12.0879 11.9577 12.4124 11.8798 12.6785C11.802 12.9446 11.6594 13.3665 11.5751 13.6196C11.4843 13.8662 11.387 14.1907 11.3546 14.3335C11.3157 14.4763 11.2638 14.619 11.2249 14.658C11.1924 14.6904 11.1665 14.7553 11.1665 14.7943C11.1665 14.8397 11.1341 14.9565 11.1016 15.0539C11.0368 15.2226 11.0303 15.2226 10.9071 15.1123C10.8358 15.0474 10.7255 14.8267 10.6736 14.632C10.6153 14.4308 10.5439 14.2361 10.518 14.2037C10.4856 14.1647 10.4467 14.022 10.4207 13.8792C10.3948 13.7364 10.3494 13.5871 10.3234 13.5547C10.2975 13.5157 10.1937 13.2237 10.0965 12.9057C9.99271 12.5812 9.88895 12.2761 9.86301 12.2242C9.83707 12.1723 9.50634 11.1793 9.12373 10.0176C8.2288 7.29826 7.89806 6.59084 7.17823 5.8964C6.58809 5.33177 5.93959 5.1176 4.84363 5.1176C3.78009 5.1176 3.09917 5.35124 2.43121 5.9613C2.08102 6.27283 1.88647 6.64925 1.73732 7.32421C1.61411 7.87587 1.59465 10.5887 1.69841 13.3924C1.73732 14.3724 1.79568 17.1177 1.82811 19.4931C1.89296 23.9128 1.93187 24.4839 2.18478 25.1913C2.34042 25.6262 2.58037 25.9637 2.87868 26.1584C3.13159 26.3271 3.18996 26.3401 3.8644 26.3401C4.52587 26.3401 4.61017 26.3271 4.86309 26.1713C5.18085 25.9766 5.56995 25.4574 5.73207 25.0096C5.92014 24.5099 5.9785 23.6013 6.07578 19.5904C6.19899 14.8592 6.19251 15.0214 6.30275 14.95C6.43894 14.8657 6.46488 14.9111 6.68537 15.5666C6.78913 15.8846 6.94477 16.3129 7.0161 16.5076C7.09392 16.7024 7.18471 16.9684 7.21714 17.0918C7.25605 17.2151 7.32738 17.4098 7.37926 17.5266C7.43114 17.6369 7.47005 17.7537 7.47005 17.7927C7.47005 17.8251 7.51545 17.942 7.56733 18.0393C7.61921 18.1431 7.6646 18.2729 7.6646 18.3249C7.6646 18.3768 7.70351 18.5001 7.75539 18.5974C7.80727 18.6948 7.86564 18.8635 7.89158 18.9804C7.91752 19.1037 7.96291 19.24 7.99534 19.2984C8.06019 19.4022 8.21583 19.8435 8.32607 20.207C8.3585 20.3303 8.41686 20.4601 8.4428 20.499C8.46874 20.5315 8.51414 20.6678 8.54008 20.7911C8.56602 20.9144 8.61141 21.0572 8.64384 21.1156C8.66978 21.1675 8.76057 21.3557 8.83839 21.5374C9.00051 21.8879 9.35718 22.4331 9.57119 22.6472C9.85004 22.9263 10.1873 23.0302 10.8422 23.0302C11.5297 23.0302 11.6075 22.9977 12.0809 22.5239C12.3273 22.2708 12.7099 21.6737 12.9304 21.1805C13.1898 20.5964 13.2352 20.4796 13.3325 20.1745C13.3844 19.9928 13.5205 19.5839 13.6373 19.2659C13.7475 18.9414 13.8578 18.591 13.8902 18.4871C13.9226 18.3768 14.0199 18.0847 14.1107 17.8381C14.2015 17.585 14.3052 17.28 14.3377 17.1567C14.422 16.8386 14.5906 16.3649 14.6684 16.2351C14.7073 16.1702 14.7332 16.0663 14.7332 16.0079C14.7332 15.943 14.7786 15.8067 14.8305 15.7094C14.8824 15.612 14.9408 15.4173 14.9667 15.2875C15.0121 15.0409 15.2261 14.5866 15.3234 14.5282C15.3558 14.5087 15.3947 14.5541 15.4077 14.6385C15.4271 14.7229 15.4531 16.6569 15.4725 18.9414C15.505 22.6602 15.5244 23.147 15.6282 23.5818C15.693 23.8479 15.7968 24.1529 15.8487 24.2633C15.9978 24.5488 16.5101 25.0421 16.8473 25.2303C17.5412 25.6197 19.0069 25.6327 19.7721 25.2627C20.1677 25.068 20.6605 24.5618 20.8745 24.1205C21.0496 23.7506 21.0561 23.7181 21.0496 22.6408C21.0496 22.0112 21.0042 21.174 20.9394 20.6937C20.7254 19.0193 20.654 18.4027 20.44 16.3454C20.4076 15.9884 20.3492 15.5017 20.3103 15.2551C20.2779 15.0149 20.2131 14.4568 20.1806 14.022C20.1417 13.5871 20.0963 13.1847 20.0769 13.1328C20.0574 13.0809 20.0055 12.6136 19.9537 12.0944C19.9018 11.5752 19.8304 10.9067 19.7915 10.6017C19.7591 10.2967 19.6813 9.64117 19.6294 9.14143C19.3895 6.99322 19.2468 6.3572 18.8447 5.66276C18.5724 5.20846 18.1897 4.80607 17.8331 4.61786C17.5996 4.49455 17.4375 4.46859 16.8084 4.4621C16.3999 4.44912 16.0043 4.4621 15.933 4.47508Z" fill="white"/>
<path d="M68.1045 5.09164C67.3328 5.22145 66.7362 5.7731 66.2239 6.82449C66.0747 7.13601 65.9126 7.4735 65.8607 7.57085C65.8088 7.67469 65.7699 7.79151 65.7699 7.83045C65.7699 7.86939 65.6726 8.15495 65.5559 8.45998C65.4327 8.76502 65.303 9.11548 65.2576 9.23879C64.9982 9.98515 64.4535 11.4454 64.3757 11.6077C64.3238 11.7115 64.2654 11.8867 64.2395 11.9971C64.2135 12.1009 64.1746 12.2177 64.1487 12.2567C64.1227 12.2891 64.0644 12.4319 64.019 12.5682C63.9801 12.7045 63.9087 12.8018 63.8698 12.7889C63.7596 12.7564 63.7336 10.6926 63.8244 9.36859C63.9152 8.0576 63.8179 7.20091 63.5326 6.6882C63.3056 6.2923 62.8387 5.88992 62.3588 5.68224C62.0086 5.53297 61.8984 5.5135 61.0683 5.5135C60.1734 5.5135 60.1539 5.5135 59.7194 5.72767C59.2655 5.94833 58.8504 6.37019 58.6689 6.80502C58.403 7.42157 58.3446 8.66767 58.5002 10.5368C58.5392 11.0171 58.5975 12.0425 58.6364 12.8083C58.7143 14.4503 58.805 16.2416 58.9023 17.7732C58.9347 18.3768 58.9931 19.545 59.0255 20.3692C59.0644 21.187 59.1034 21.9333 59.1228 22.0242C59.1358 22.1151 59.1812 22.7381 59.2201 23.4196C59.2784 24.3736 59.3238 24.7371 59.4276 25.0291C59.6157 25.5418 60.0177 25.9831 60.4393 26.1259C61.0164 26.3336 62.1254 26.2427 62.5663 25.9507C62.7868 25.8079 63.0333 25.3925 63.1759 24.9253C63.2732 24.5813 63.2991 24.2373 63.3186 22.6343C63.3381 21.6024 63.3705 20.7132 63.3964 20.6743C63.4678 20.5575 63.6753 20.6937 63.8115 20.9533C63.9347 21.2 64.5897 22.3812 64.7129 22.5759C64.7583 22.6473 64.8815 22.8809 64.9917 23.0951C65.8218 24.7046 66.4638 25.2692 67.6181 25.399C68.3185 25.4834 68.9151 25.412 69.3691 25.1978C69.8295 24.9772 70.037 24.802 70.2835 24.4255C70.4586 24.1594 70.4715 24.101 70.4715 23.491C70.4715 22.8679 70.4586 22.8095 70.2446 22.3812C69.9852 21.8749 69.6155 21.2973 69.3885 21.0507C69.3042 20.9598 69.0967 20.7132 68.9216 20.499C68.4547 19.9149 68.1629 19.5645 67.9035 19.2724C67.7803 19.1232 67.5598 18.8571 67.4171 18.6818C67.2809 18.5001 67.1512 18.3443 67.1318 18.3249C66.8789 18.0718 66.3536 17.3384 66.3536 17.2345C66.3536 17.1047 66.4119 16.9814 66.7686 16.3454C66.8853 16.1377 67.7349 14.5931 68.2796 13.5871C68.3315 13.4963 68.4742 13.2496 68.5974 13.0355C68.7206 12.8213 68.8633 12.5552 68.9216 12.4514C68.9735 12.341 69.0838 12.1398 69.1616 11.9971C69.3172 11.7245 69.7452 10.9457 70.0695 10.3421C70.1732 10.1474 70.3029 9.93972 70.3483 9.88131C70.4002 9.82939 70.4391 9.73203 70.4391 9.67362C70.4391 9.61521 70.4715 9.55031 70.5105 9.53084C70.6207 9.45945 71.2757 8.0576 71.373 7.67469C71.5481 6.98674 71.5545 6.75959 71.4119 6.30528C71.2692 5.84449 71.0552 5.60436 70.5753 5.37721C70.4456 5.31231 70.29 5.23442 70.2251 5.20197C69.9138 5.04621 68.7465 4.9878 68.1045 5.09164Z" fill="white"/>
<path d="M78.221 5.12412C77.8579 5.18902 77.3326 5.37724 77.0991 5.52002C76.3858 5.96783 76.068 6.513 75.7308 7.87591C75.5687 8.51842 75.4909 8.81048 75.4001 9.14147C75.3482 9.3167 75.2639 9.65418 75.199 9.88783C75.1407 10.1215 75.0369 10.4979 74.9721 10.725C74.9072 10.9522 74.8489 11.1858 74.8489 11.2378C74.8489 11.2897 74.8099 11.4649 74.7581 11.6337C74.6024 12.1334 74.4598 12.6331 74.4014 12.9057C74.3625 13.0485 74.2782 13.3989 74.2004 13.6845C74.1225 13.9701 74.0317 14.3076 74.0058 14.4309C73.9799 14.5542 73.8891 14.8917 73.8113 15.1772C73.7334 15.4628 73.6297 15.8587 73.5843 16.0599C73.5065 16.4168 73.4675 16.5596 73.273 17.1891C73.2146 17.3644 73.1498 17.6305 73.1238 17.7732C73.1044 17.916 73.0525 18.0848 73.0201 18.1432C72.9877 18.2081 72.9423 18.3833 72.9098 18.5326C72.8774 18.6883 72.7866 19.0453 72.7088 19.3309C72.631 19.6164 72.5272 20.0123 72.4818 20.207C72.4364 20.4017 72.3327 20.7846 72.2549 21.0507C71.4831 23.8285 71.5091 24.763 72.3716 25.6716C72.5661 25.8793 72.7607 26.0481 72.7996 26.0481C72.8385 26.0481 72.9617 26.1 73.0655 26.1584C73.3638 26.3271 74.7516 26.3207 75.2574 26.1454C75.6789 26.0026 76.308 25.4899 76.5739 25.0681C76.8592 24.6073 77.151 23.5169 77.2224 22.6278C77.2742 21.9139 77.3391 21.8555 78.1886 21.7646C78.5453 21.7257 78.9409 21.6673 79.0641 21.6348C79.1873 21.5959 79.5116 21.5505 79.7839 21.531C80.3935 21.4791 80.4908 21.5505 80.4973 22.0437C80.4973 22.2319 80.5232 22.5434 80.5556 22.7381C80.5816 22.9328 80.6399 23.4001 80.6853 23.7766C80.7243 24.153 80.8021 24.5489 80.854 24.6657C80.9058 24.776 80.9447 24.8993 80.9447 24.9318C80.9447 25.094 81.5154 25.5743 81.8721 25.7106C82.3844 25.9053 83.5971 25.9118 84.304 25.7236C84.7709 25.6003 85.2248 25.3277 85.2248 25.1719C85.2248 25.1265 85.2702 25.0551 85.3156 25.0097C85.3675 24.9707 85.4453 24.776 85.4907 24.5878C85.575 24.2179 85.4907 23.3807 85.2573 22.3163C85.0108 21.1481 84.946 20.8625 84.8682 20.5315C84.8163 20.3368 84.732 19.9409 84.6736 19.6554C84.6152 19.3698 84.5309 18.9609 84.4791 18.7468C84.4337 18.5326 84.3299 18.0653 84.2521 17.7083C84.1743 17.3514 84.0835 16.949 84.0446 16.8127C84.0121 16.6699 83.9408 16.3519 83.8954 16.0988C83.8046 15.6445 83.6879 15.0799 83.5517 14.4958C83.5193 14.3335 83.4415 13.9701 83.3766 13.6845C83.3183 13.3989 83.2145 12.9446 83.1432 12.6721C83.0783 12.3995 83.0199 12.1074 83.0199 12.0231C83.0199 11.9387 82.981 11.7375 82.9292 11.5752C82.8773 11.413 82.7995 11.108 82.7605 10.8938C82.7151 10.6796 82.6373 10.2967 82.5854 10.0501C82.5336 9.79697 82.4557 9.40756 82.4039 9.17392C82.1704 8.03167 82.0407 7.51896 81.8851 7.14253C81.7943 6.91538 81.7229 6.7077 81.7229 6.68174C81.7229 6.46108 80.7113 5.44863 80.3805 5.34479C80.2444 5.29936 80.0952 5.23446 80.0433 5.19551C79.959 5.12412 78.5323 5.0722 78.221 5.12412ZM79.2392 11.9452C79.2846 12.3281 79.3689 12.9966 79.4208 13.4249C79.5505 14.5152 79.6348 15.2356 79.7126 15.7613C79.8423 16.6764 79.9201 17.5591 79.8812 17.7083C79.8488 17.8252 79.7839 17.8771 79.5959 17.9095C79.4662 17.929 79.0965 18.0393 78.7788 18.1432C78.4675 18.247 78.1432 18.3249 78.0654 18.3119C77.9033 18.286 77.8968 18.0848 78.02 17.254C78.0589 16.9685 78.1367 16.4428 78.1951 16.0858C78.247 15.7289 78.3313 15.1318 78.3897 14.7554C78.4415 14.3789 78.5258 13.8273 78.5777 13.5223C78.6296 13.2172 78.688 12.7954 78.7139 12.5812C78.7528 12.1788 78.8242 11.7894 78.9409 11.3546C79.0446 10.9717 79.1289 11.1469 79.2392 11.9452Z" fill="white"/>
<path d="M30.2517 5.89638C29.266 6.21439 28.7018 7.01916 28.7147 8.103C28.7147 8.45346 28.7537 8.68711 28.825 8.81691C28.8834 8.92075 28.9352 9.03757 28.9352 9.06353C28.9352 9.18684 29.2919 9.56975 29.6032 9.78393C30.1414 10.1539 30.4462 10.2188 31.5811 10.2123C32.1259 10.2123 32.6965 10.1863 32.8457 10.1539C32.9948 10.1149 33.4164 10.0695 33.7795 10.0435C34.3437 10.0046 34.4475 10.0176 34.4799 10.0954C34.5058 10.1539 34.3243 10.5692 34.0843 11.03C33.8444 11.4908 33.3126 12.5357 32.8911 13.3599C32.0026 15.0993 30.8483 17.3513 30.7575 17.5266C30.7251 17.5915 30.6019 17.8316 30.4852 18.0652C30.3749 18.2989 30.1025 18.8246 29.8885 19.2335C28.838 21.2454 28.6953 21.5829 28.6369 22.2059C28.598 22.6472 28.6823 23.1405 28.825 23.2897C28.8704 23.3352 28.9482 23.4325 29.0001 23.5104C29.1428 23.7181 29.694 24.0621 30.0701 24.1854C30.4462 24.3022 32.4696 24.5813 34.2205 24.75C34.5772 24.7825 35.2062 24.8538 35.6148 24.9058C37.2166 25.1134 37.476 25.1394 37.904 25.1394C38.4617 25.1394 39.188 24.9772 39.5966 24.7565C40.4137 24.3152 40.7639 23.2054 40.4007 22.2383C40.3229 22.0307 40.2256 21.823 40.1867 21.7776C39.8365 21.3168 39.3761 21.0377 38.6303 20.817C38.2931 20.7197 38.0596 20.7132 36.8015 20.7456C36.0039 20.7716 35.0246 20.8105 34.6226 20.83C33.9092 20.8754 33.8833 20.8689 33.8509 20.7391C33.8249 20.6548 33.8573 20.5315 33.9157 20.4536C34.0584 20.2589 34.1751 20.0772 34.2529 19.9149C34.2918 19.8435 34.4345 19.6099 34.5772 19.3957C34.7134 19.1815 34.9274 18.8505 35.0441 18.6558C35.1608 18.4676 35.3035 18.2405 35.3554 18.1626C35.4073 18.0782 35.6407 17.6953 35.8742 17.3059C36.1012 16.923 36.3087 16.592 36.3281 16.5725C36.367 16.5401 36.8664 15.7223 37.0415 15.4173C37.0934 15.3199 37.2749 15.0344 37.4371 14.7878C37.7354 14.3335 37.9494 13.983 38.5655 12.977C38.747 12.685 39.0259 12.2437 39.201 11.9841C39.3696 11.7309 39.5058 11.5103 39.5058 11.4908C39.5058 11.4713 39.629 11.2701 39.7846 11.043C40.1672 10.4913 40.712 9.55677 40.7703 9.36207C40.7963 9.2777 40.8482 9.16737 40.8871 9.12194C41.0038 8.97267 40.9779 8.13545 40.8482 7.86287C40.4461 7.01916 39.389 6.53241 37.6576 6.38313C36.5292 6.28578 35.0052 6.13002 34.7847 6.09108C33.5915 5.87691 30.7056 5.7536 30.2517 5.89638Z" fill="white"/>
<path d="M53.0917 6.47411C52.3005 6.70127 51.866 7.03226 51.5612 7.6553C51.4121 7.96683 51.4056 8.01875 51.4121 9.40113C51.4186 10.1864 51.4575 11.3092 51.5093 11.8998C51.6261 13.3017 51.6326 17.2995 51.5158 18.325C51.464 18.7338 51.3537 19.3893 51.2694 19.7852C51.1786 20.1746 51.0813 20.6224 51.0489 20.7717C51.0165 20.921 50.9646 21.0962 50.9257 21.1611C50.8933 21.226 50.7571 21.5116 50.6209 21.7971C50.3745 22.3228 49.9983 22.7642 49.7 22.8745C49.3109 23.0238 48.844 22.6473 48.5263 21.9334C47.8907 20.5121 47.7481 19.0583 47.8648 15.2097C47.9037 13.8338 47.975 12.3606 48.0139 11.9323C48.1242 10.6991 48.1177 9.21292 47.988 8.77808C47.7805 8.06418 47.5146 7.67477 47.0152 7.33729C46.023 6.6818 44.2137 6.6818 43.4874 7.34378C43.2021 7.60338 42.8519 8.09663 42.7805 8.34325C42.7546 8.42113 42.7027 8.52497 42.6703 8.56391C42.6379 8.60934 42.586 8.79755 42.5536 8.98577C42.5147 9.18047 42.4563 9.47901 42.4174 9.66073C42.3785 9.85543 42.3525 10.9458 42.3525 12.419C42.3525 14.7684 42.4109 15.8328 42.6249 17.4488C42.6573 17.7344 42.7157 18.1692 42.7546 18.4223C42.8454 19.1362 43.0853 20.2071 43.3383 21.0508C43.4096 21.2844 43.4615 21.5051 43.4615 21.5505C43.4615 21.5895 43.5004 21.7063 43.5523 21.8101C43.6041 21.9075 43.7079 22.1541 43.7857 22.3488C44.1813 23.3677 44.6807 24.1595 45.381 24.854C46.1203 25.5938 46.5548 25.8664 47.4173 26.1455C47.8518 26.2883 49.4731 26.3532 50.0113 26.2493C50.5496 26.152 51.0035 26.0481 51.1462 25.9897C52.5599 25.4121 53.5391 24.5684 54.2784 23.3028C54.4665 22.9913 54.6157 22.7058 54.6157 22.6733C54.6157 22.6344 54.674 22.4981 54.7454 22.3683C54.8167 22.232 54.8751 22.0762 54.8751 22.0243C54.8751 21.9659 54.9075 21.888 54.9399 21.8556C55.0177 21.7777 55.1409 21.3688 55.4522 20.1097C55.7051 19.0778 55.8932 17.6435 56.1331 14.9177C56.185 14.3466 56.2564 13.5872 56.2953 13.2303C56.4639 11.6142 56.5158 10.8744 56.5417 9.73212C56.5676 8.70669 56.5547 8.4406 56.4574 8.07716C56.2434 7.27239 55.8867 6.88948 55.0372 6.53901C54.674 6.39623 53.5197 6.35729 53.0917 6.47411Z" fill="white"/>
<path d="M24.2012 19.7917C23.6111 19.9215 23.2479 20.0708 22.8588 20.3369C22.5735 20.5316 22.4438 20.6679 22.0806 21.1482C21.9315 21.3429 21.8018 21.927 21.8018 22.3878C21.8082 23.1211 22.0806 23.8286 22.5929 24.4256C22.995 24.8929 23.65 25.185 24.4411 25.2369C25.9068 25.3407 26.9768 24.815 27.5799 23.6858C27.7874 23.3029 27.7939 23.2639 27.7939 22.5111C27.7939 21.8231 27.7809 21.6933 27.6447 21.4078C27.2556 20.5835 26.5812 20.0254 25.7057 19.8112C25.148 19.6684 24.7913 19.6619 24.2012 19.7917Z" fill="white"/>
<path d="M16.3155 29.1244C14.545 29.5073 13.5723 30.5393 12.418 33.2521C12.2558 33.6285 12.1002 33.9595 12.0678 33.992C12.0354 34.0309 12.0094 34.0958 12.0094 34.1477C12.0094 34.1997 11.9186 34.4333 11.8084 34.6669C11.6981 34.9071 11.4971 35.3808 11.3544 35.7183C11.2118 36.0558 11.0561 36.4128 11.0042 36.5101C10.9524 36.601 10.907 36.7113 10.907 36.7502C10.907 36.7892 10.8032 37.0488 10.6735 37.3214C10.5503 37.6004 10.4206 37.886 10.3882 37.9574C10.3622 38.0288 10.2779 38.217 10.2066 38.3793C10.1353 38.5415 9.92125 39.0283 9.73967 39.4631C9.10414 40.9623 9.07171 40.8974 9.11711 38.2819C9.14305 37.1721 9.18844 36.0363 9.22087 35.7508C9.25978 35.4652 9.2922 34.7448 9.2922 34.1477C9.29869 33.0444 9.20141 32.337 8.98741 31.9411C8.93553 31.8503 8.89662 31.7399 8.89662 31.701C8.89662 31.6685 8.79286 31.4803 8.66316 31.2856C8.45564 30.9871 8.15733 30.708 7.80714 30.4938C7.74229 30.4549 7.58017 30.351 7.4375 30.2602C7.29483 30.1693 7.10676 30.072 7.01597 30.046C6.92518 30.0201 6.79548 29.9746 6.72415 29.9422C6.12104 29.6631 4.09772 29.5268 3.33898 29.702C3.09904 29.7605 2.79424 29.8254 2.67103 29.8513C1.91228 30.0006 0.790379 30.9027 0.45316 31.6296C0.11594 32.3565 0.0446051 32.8367 0.0575751 34.323C0.0575751 35.0693 0.109455 36.1791 0.161335 36.7892C0.2197 37.3928 0.278065 38.3598 0.304005 38.9309C0.32346 39.502 0.368855 40.2289 0.40128 40.5534C0.44019 40.8714 0.49207 41.6762 0.530979 42.3382C0.615284 43.9607 0.706074 45.4664 0.822804 47.1408C0.926564 48.6141 1.01087 49.977 1.11463 51.911C1.15354 52.5535 1.2119 53.4427 1.24433 53.8905C1.28324 54.3383 1.3416 55.195 1.37403 55.7986C1.48427 57.6547 1.71773 58.427 2.35975 59.089C2.95637 59.6991 3.59838 59.8938 5.00562 59.8938C5.92649 59.8938 6.10159 59.8678 6.81494 59.6147C7.35968 59.4265 7.87199 58.81 8.15084 58.0117C8.27406 57.6547 8.34539 56.5384 8.4297 53.4881C8.46212 52.3524 8.50103 51.7293 8.55291 51.6774C8.65667 51.5735 8.88365 51.7098 8.93553 51.911C8.95498 52.0019 9.00686 52.0992 9.05226 52.1252C9.09117 52.1512 9.43487 52.6379 9.811 53.209C12.5282 57.3367 12.5736 57.3886 13.3064 57.8884C13.715 58.1674 14.2273 58.4335 14.357 58.4335C14.4153 58.4335 14.4802 58.4595 14.4997 58.4919C14.5775 58.6153 16.0171 58.771 16.7564 58.7386C18.2609 58.6607 18.9419 58.44 19.7006 57.7715C20.3232 57.2264 20.5631 56.7137 20.5696 55.9089C20.5696 55.3118 20.4594 54.9354 20.0314 54.1436C19.7395 53.592 19.1948 52.9235 18.1572 51.8461C17.8524 51.5281 17.5346 51.1906 17.4633 51.1063C17.392 51.0219 16.7564 50.3534 16.0496 49.62C13.7993 47.2771 13.5853 47.0435 13.5139 46.9072C13.4296 46.7449 13.488 46.6216 14.1235 45.6351C14.6683 44.7979 14.9406 44.3696 15.3427 43.7206C15.7448 43.0781 16.1987 42.3706 17.2363 40.7806C17.5995 40.2224 17.6773 40.0926 17.7875 39.8849C17.8329 39.8071 17.8913 39.7422 17.9237 39.7422C17.9497 39.7422 17.9756 39.7097 17.9756 39.6643C17.9756 39.6253 18.0729 39.4436 18.1961 39.2619C18.3777 38.9828 18.7084 38.4701 19.3699 37.4382C19.4412 37.3279 19.5255 37.1916 19.5644 37.1332C19.6941 36.906 20.4723 35.6859 20.5242 35.621C20.6409 35.4847 21.2894 34.4398 21.4191 34.1932C21.4905 34.0504 21.5748 33.8881 21.6072 33.8362C21.6396 33.7843 21.7239 33.6091 21.7888 33.4468C21.8536 33.2846 21.9574 33.0379 22.0158 32.8952C22.1779 32.5057 22.2557 31.6815 22.1779 31.2142C22.0547 30.4873 21.698 30.0201 20.9846 29.6501C19.772 29.0141 17.82 28.7934 16.3155 29.1244Z" fill="#F947A3"/>
<path d="M46.5743 29.1374C46.0685 29.1633 44.35 29.4035 44.0776 29.4878C43.9738 29.5203 43.7144 29.5722 43.5069 29.6111C43.3059 29.6501 43.0854 29.702 43.0206 29.7409C42.9622 29.7734 42.7806 29.8188 42.6185 29.8448C42.4628 29.8707 42.2877 29.9162 42.2294 29.9486C42.1775 29.9811 41.8338 30.1174 41.4706 30.2601C40.5433 30.6236 39.6938 31.1752 39.0517 31.8372C38.5329 32.3694 38.2476 32.973 38.1828 33.6739C38.1309 34.1931 38.2865 37.3797 38.5654 41.6242C38.6237 42.429 38.6626 43.3052 38.6626 43.5713C38.6626 43.8438 38.7015 44.5577 38.7534 45.1613C38.8053 45.7714 38.8702 46.7773 38.8896 47.4004C38.9091 48.0234 38.9545 48.8542 38.9934 49.2501C39.0258 49.6395 39.0842 50.5611 39.1166 51.2944C39.2852 54.7471 39.4019 55.818 39.6873 56.4865C40.4201 58.1804 41.4188 59.0111 43.4291 59.5952C44.4602 59.8938 46.918 60.1663 47.9232 60.0949C49.8817 59.9522 50.7507 59.8029 51.892 59.4265C52.0541 59.3746 52.2941 59.3097 52.4238 59.2837C52.56 59.2512 52.7026 59.1993 52.748 59.1669C52.7934 59.1344 52.9815 59.05 53.1566 58.9851C53.4225 58.8943 54.4536 58.3751 55.1021 58.0181C55.2383 57.9402 56.0424 57.4275 56.4315 57.1614C57.2551 56.6098 58.8115 55.2599 59.2525 54.7212C59.2914 54.6757 59.5119 54.4161 59.7389 54.1436C60.2966 53.4946 60.3874 53.3842 60.6143 53.0792C60.7181 52.9364 60.8219 52.8066 60.8413 52.7871C60.9191 52.7093 61.626 51.6124 61.8919 51.1646C62.1513 50.7168 62.696 49.6395 62.936 49.0878C63.2083 48.4713 63.3056 48.2246 63.3056 48.1662C63.3056 48.1273 63.3445 48.0105 63.3964 47.9001C63.4418 47.7833 63.5456 47.4718 63.6234 47.2057C63.7012 46.9396 63.805 46.5891 63.8568 46.4269C63.9152 46.2646 63.9541 46.0569 63.9541 45.9596C63.9541 45.8622 63.9865 45.7065 64.0254 45.6026C64.1681 45.2522 64.2978 43.7984 64.3043 42.5653C64.3108 40.9428 64.1681 39.7032 63.8633 38.7037C63.8114 38.5415 63.7531 38.3143 63.7271 38.1975C63.7012 38.0807 63.6428 37.9054 63.5909 37.8081C63.5391 37.7107 63.5002 37.6004 63.5002 37.555C63.5002 37.2305 62.4561 35.2705 61.9113 34.576C61.5222 34.0763 61.386 33.9205 60.8089 33.3494C60.0437 32.5771 59.3238 32.0125 58.4937 31.5257C57.7674 31.1039 56.4834 30.4613 56.3537 30.4613C56.3083 30.4613 56.211 30.4159 56.1462 30.364C56.0748 30.3121 55.9581 30.2666 55.8803 30.2666C55.809 30.2666 55.6922 30.2277 55.6209 30.1758C55.5496 30.1303 55.3615 30.059 55.1994 30.02C55.0372 29.9811 54.7065 29.8902 54.4536 29.8123C53.831 29.6306 53.2733 29.5073 52.5081 29.384C52.1514 29.3256 51.7169 29.2542 51.5353 29.2217C51.1981 29.1633 47.3071 29.0984 46.5743 29.1374ZM50.9517 34.4527C51.5678 34.5695 52.3979 34.7967 52.5081 34.8746C52.547 34.9005 52.6378 34.946 52.7221 34.9719C53.0204 35.0628 53.7856 35.5431 54.1293 35.8611C54.473 36.1726 55.0308 36.893 55.1151 37.1266C55.1345 37.1915 55.1929 37.2889 55.2383 37.3408C55.3615 37.4901 55.7571 38.7816 55.8933 39.4825C56.0619 40.3587 56.0619 43.2922 55.8933 44.058C55.5106 45.7973 55.2318 46.6475 54.6352 47.8871C54.1747 48.8607 53.8116 49.4642 53.2993 50.1262C53.1177 50.3599 52.9361 50.5935 52.8972 50.6454C52.787 50.7882 51.8142 51.7487 51.5807 51.9499C51.2241 52.255 50.7118 52.5665 50.0762 52.8715C49.2332 53.2804 48.3836 53.4816 47.5082 53.4946C47.1709 53.501 47.0737 53.4751 46.8532 53.3128C46.6392 53.1571 46.5808 53.0727 46.5614 52.8715C46.516 52.547 46.6068 50.0159 46.7365 47.8547C46.9115 44.8238 46.9634 43.8309 47.0283 42.2408C47.0607 41.3841 47.1191 40.3587 47.1515 39.9693C47.1904 39.5734 47.2358 38.7297 47.2553 38.0872C47.3006 36.7178 47.4498 34.6993 47.5211 34.5306C47.5471 34.4657 47.6249 34.3813 47.7027 34.3489C47.9297 34.2515 50.2902 34.3229 50.9517 34.4527Z" fill="#F947A3"/>
<path d="M28.06 29.6178C27.7747 29.6437 27.3985 29.7021 27.217 29.7476C26.1145 30.0266 25.0899 30.9417 24.7332 31.9607C24.5776 32.4085 24.396 33.5507 24.396 34.0959C24.396 34.5113 24.5257 36.5102 24.6619 38.1133C24.7008 38.5611 24.7527 39.4502 24.7851 40.0927C24.8175 40.7417 24.8759 41.5725 24.9083 41.9489C24.9407 42.3253 24.9926 43.0846 25.0121 43.6363C25.0315 44.1879 25.0769 44.8759 25.1158 45.1615C25.1483 45.447 25.2066 46.2518 25.239 46.9462C25.2715 47.6407 25.3298 48.5752 25.3623 49.023C25.4336 49.8213 25.4725 50.4963 25.6606 53.631C25.7838 55.7013 25.8811 56.3698 26.1015 56.7527C26.4582 57.3693 27.0548 57.8365 27.7487 58.0572C28.1184 58.174 28.3518 58.1935 29.2273 58.1935C30.1417 58.2 30.3168 58.1805 30.6864 58.0507C31.536 57.7522 31.8991 57.3368 32.4374 56.0648C32.5411 55.8181 32.6968 53.975 32.7616 52.1707C32.8005 51.1712 32.8589 49.9316 32.8913 49.4124C32.9562 48.5038 33.0016 47.6017 33.1832 43.5065C33.3193 40.4821 33.4101 38.8336 33.5139 37.5032C33.6436 35.8287 33.6371 33.5442 33.5009 32.7719C33.4426 32.4474 33.3323 32.0515 33.261 31.8893C33.0859 31.5258 32.6773 30.9807 32.2882 30.5913C32.0029 30.2992 31.3414 29.9228 30.9718 29.8449C30.868 29.819 30.654 29.7605 30.4919 29.7151C30.1352 29.6048 28.7604 29.5529 28.06 29.6178Z" fill="#F947A3"/>
<path d="M75.3031 29.7799C74.1552 29.9811 73.7532 30.072 73.5197 30.1758C73.4159 30.2212 73.163 30.3186 72.9685 30.3965C72.5664 30.5522 71.8141 30.9287 71.4769 31.1428C70.8933 31.5193 69.8622 32.3759 69.5963 32.7134C69.5444 32.7783 69.3952 32.9665 69.2655 33.1223C69.1423 33.2845 68.9672 33.5312 68.8829 33.674C68.7986 33.8167 68.7143 33.9465 68.6949 33.966C68.6689 33.9855 68.6041 34.0828 68.5457 34.1932C68.0334 35.1147 67.6443 36.2894 67.3914 37.7043C67.2617 38.4117 67.2487 38.6388 67.2811 39.8785C67.3136 41.3452 67.3525 41.6048 67.7221 42.773C67.9296 43.4285 68.2668 44.1424 68.5976 44.6486C68.7208 44.8304 68.8181 45.0121 68.8181 45.0575C68.8181 45.0965 68.844 45.1289 68.8764 45.1289C68.9089 45.1289 69.0386 45.2847 69.1618 45.4729C69.4536 45.9077 70.4458 46.9202 71.0878 47.4329C71.3537 47.647 71.6066 47.8547 71.639 47.8937C71.678 47.9326 71.9244 48.1078 72.1903 48.2766C72.4562 48.4453 72.8258 48.679 73.0009 48.7958C73.5132 49.1203 74.4989 49.6914 75.2058 50.0614C75.5625 50.2496 75.8997 50.4443 75.958 50.4897C76.0099 50.5416 76.0813 50.5806 76.1072 50.5806C76.1396 50.5806 76.399 50.7233 76.6973 50.9051C76.9956 51.0803 77.2486 51.2296 77.268 51.2296C77.3718 51.2296 77.9425 51.6774 78.3121 52.0343C78.7661 52.4886 78.9347 52.8521 78.9347 53.3908C78.9347 53.8126 78.7531 54.3058 78.5131 54.533C78.124 54.8964 77.1578 55.0522 76.7622 54.8121C76.4898 54.6433 76.1526 54.2929 75.8867 53.897C74.6675 52.0927 73.7013 51.3529 72.1449 51.0349C71.0359 50.8012 69.9335 50.9245 69.0321 51.3853C68.3252 51.7358 67.6767 52.4627 67.5146 53.0792C67.4757 53.222 67.4173 53.4037 67.3849 53.4881C67.2357 53.8645 67.3719 54.8121 67.6637 55.4481C68.215 56.6682 70.167 58.2194 72.093 58.9592C72.307 59.0436 72.5405 59.1474 72.6118 59.1929C72.6831 59.2383 72.7934 59.2772 72.8582 59.2772C72.9296 59.2772 73.0722 59.3162 73.1825 59.3681C73.2992 59.42 73.5391 59.4979 73.7142 59.5368C73.8958 59.5758 74.2136 59.6537 74.4276 59.7056C75.2123 59.8938 75.4587 59.9262 76.4898 59.9652C78.0851 60.0236 80.0112 59.8354 80.6662 59.5563C80.7764 59.5109 80.9126 59.4719 80.9709 59.4719C81.1136 59.4719 81.8724 59.2188 81.9437 59.1409C81.9826 59.1085 82.0475 59.0825 82.0993 59.0825C82.3004 59.0825 84.0513 58.1674 84.1097 58.0311C84.1227 58.0052 84.1616 57.9792 84.2005 57.9792C84.3302 57.9792 85.1862 57.2004 85.5883 56.7137C86.2627 55.8959 86.8204 54.8121 86.9761 54.0203C87.015 53.8256 87.0798 53.5141 87.1187 53.3388C87.2225 52.8521 87.1447 51.3594 86.989 50.7753C86.8464 50.2301 86.4702 49.3474 86.3859 49.3474C86.3535 49.3474 86.3276 49.302 86.3276 49.2566C86.3276 49.2047 86.2627 49.0878 86.1849 49.0035C86.1006 48.9126 85.8995 48.6725 85.7374 48.4583C85.3613 47.9716 84.5442 47.2512 83.9216 46.8488C83.6557 46.68 83.2926 46.4399 83.1175 46.3231C82.9359 46.1998 82.7738 46.1024 82.7478 46.1024C82.7219 46.1024 82.5727 46.018 82.4171 45.9077C82.2615 45.8039 82.0604 45.6871 81.9761 45.6481C81.8918 45.6092 81.6908 45.5053 81.5287 45.4145C81.3665 45.3236 80.945 45.0965 80.5883 44.9082C79.9787 44.5837 79.1941 44.1619 78.9022 43.9996C78.8374 43.9607 78.5845 43.7984 78.351 43.6427C76.7492 42.5653 75.9905 41.5788 75.5236 39.9693C75.3679 39.4436 75.3679 37.3928 75.5171 36.9514C75.5689 36.7892 75.6338 36.5491 75.6533 36.4192C75.7051 36.1142 75.9386 35.5885 76.0164 35.5885C76.0553 35.5885 76.0813 35.5496 76.0813 35.5042C76.0813 35.3614 76.613 34.8487 76.9243 34.6864C77.1707 34.5566 77.3134 34.5306 77.7933 34.5306C78.338 34.5371 78.377 34.5436 78.552 34.7253C78.8309 35.0044 78.8893 35.4522 78.7985 36.7113C78.7012 38.0872 78.7531 39.6059 78.9152 40.0018C79.0838 40.4171 79.3627 40.813 79.6415 41.0207C80.0501 41.3387 80.6208 41.6892 80.7245 41.6892C80.7764 41.6892 80.9256 41.7346 81.0553 41.7865C81.5741 42.0072 83.8049 42.0331 84.2848 41.8255C84.3561 41.7995 84.5896 41.7022 84.8036 41.6178C85.0176 41.5399 85.3159 41.3841 85.4586 41.2868C85.8477 41.0272 86.3859 40.4106 86.5351 40.0667C86.6777 39.7357 86.8464 38.9244 86.8593 38.5026C86.8658 38.1781 86.6842 36.8476 86.5999 36.6204C86.5675 36.5361 86.5221 36.3284 86.4962 36.1532C86.4702 35.9844 86.4054 35.7702 86.3535 35.6664C86.3081 35.5691 86.2627 35.4393 86.2627 35.3808C86.2627 35.3224 86.2238 35.1926 86.1719 35.0888C86.1265 34.9914 85.9903 34.6994 85.8736 34.4528C85.2316 33.0509 84.168 31.7594 83.0915 31.0779C82.7024 30.8378 82.1123 30.5328 81.8918 30.4679C81.7816 30.4354 81.4897 30.3316 81.2368 30.2472C80.1538 29.8708 78.9282 29.6826 77.3458 29.6501C76.3342 29.6306 76.0618 29.6436 75.3031 29.7799Z" fill="#F947A3"/>
</svg>
